<svg xmlns="http://www.w3.org/2000/svg" width="32" height="31.991" viewBox="0 0 32 31.991">
    <g transform="translate(5417.015 -10360.246)">
        <g transform="translate(-5417.015 10360.234)">
            <path
                d="M29.628,11.206c-.268-3.8.091-5-3-5l-8.23-.2a3.2,3.2,0,0,1-2.6-1.339l-.2-.284c.036.058-.4-.625-.48-.739a1.568,1.568,0,0,0-1.611-.835H5.318a3.526,3.526,0,0,0-2.955,3.4c.026.811-.128,1.713-1.025,1.919S-.076,6.813.027,6.21H.015A5.629,5.629,0,0,1,5.318.016H13.51C15.577-.226,17.56,1.744,18.4,3.649h8.23c5.323,0,4.958,2.362,5.305,7.557h.052V22.4a9.591,9.591,0,0,1-9.591,9.591H9.606A9.591,9.591,0,0,1,.015,22.4V11.206Zm0,2.209H2.363V22.4c0,3.531,3.711,7.448,7.243,7.448H22.394c3.531,0,7.234-3.917,7.234-7.448Z"
                transform="translate(0.015 0.016)" fill="#4e80ff" />
        </g>
        <path
            d="M203.271,172.4l-4.334,3.995a.917.917,0,0,1-1.225,0l-4.332-3.995a.756.756,0,0,1,0-1.129.918.918,0,0,1,1.225,0l2.853,2.631v-5.365a.869.869,0,0,1,1.732,0V173.9l2.853-2.631a.918.918,0,0,1,1.225,0,.756.756,0,0,1,0,1.129Z"
            transform="translate(-5599.614 10209.11)" fill="#4e80ff" stroke="#4e80ff"
            stroke-width="0.5" />
    </g>
</svg>
