<svg xmlns="http://www.w3.org/2000/svg" width="39.105" height="45.15" viewBox="0 0 39.105 45.15">
    <path
        d="M134.312,90.462h-25.1a7.187,7.187,0,0,1-7-7.342h2.852a4.336,4.336,0,0,0,4.155,4.49h25.1a4.336,4.336,0,0,0,4.151-4.49V66.7a4.336,4.336,0,0,0-4.151-4.49l-2.941-.1.12-4.587c0-5.768-3.749-9.352-9.782-9.352-5.969,0-9.679,3.584-9.679,9.352l.152,4.587-2.974.1a4.336,4.336,0,0,0-4.154,4.49v9.648h-2.849V66.7a7.19,7.19,0,0,1,6.973-7.342V57.516c0-7.3,5.036-12.2,12.528-12.2,7.556,0,12.634,4.9,12.634,12.2v1.839a7.185,7.185,0,0,1,6.97,7.342V83.12A7.183,7.183,0,0,1,134.312,90.462Z"
        transform="translate(-102.208 -45.312)" />
    <path
        d="M286.654,349.014v5.843H288.4v5.67h2.764v-5.67h1.75v-5.843Zm-8.142-9.054h23.549v2.761H278.3Z"
        transform="translate(-270.276 -325.85)" />
</svg>