<svg xmlns="http://www.w3.org/2000/svg" width="42.389" height="45.15" viewBox="0 0 42.389 45.15">
    <path
        d="M162.4,133.7a12.524,12.524,0,1,1,6.417,1.752A18.044,18.044,0,0,0,150.776,153.5a1.388,1.388,0,1,1-2.776,0A20.808,20.808,0,0,1,162.4,133.7Zm6.417-1.024a9.717,9.717,0,1,0-9.716-9.717A9.712,9.712,0,0,0,168.821,132.678ZM189.641,153.5a1.388,1.388,0,1,1-2.776,0,18.114,18.114,0,0,0-5.893-13.358,1.385,1.385,0,0,1,1.866-2.048A20.84,20.84,0,0,1,189.641,153.5Zm0,0"
        transform="translate(-147.638 -110.1)" />
    <path
        d="M182.635,149.447a1.73,1.73,0,0,1-1.731-1.731,17.68,17.68,0,0,0-5.785-13.1,1.733,1.733,0,0,1,2.346-2.551,21.185,21.185,0,0,1,6.924,15.671A1.761,1.761,0,0,1,182.635,149.447ZM176.28,132.3h-.046a1.1,1.1,0,0,0-.729.342,1.046,1.046,0,0,0,.068,1.481,18.373,18.373,0,0,1,6.013,13.621,1.048,1.048,0,1,0,2.1,0,20.542,20.542,0,0,0-6.7-15.17A1.06,1.06,0,0,0,176.28,132.3Zm-32.549,17.151A1.73,1.73,0,0,1,142,147.716a21.124,21.124,0,0,1,13.985-19.93,12.873,12.873,0,1,1,7.2,2.187,17.741,17.741,0,0,0-17.721,17.721A1.735,1.735,0,0,1,143.731,149.447Zm19.475-44.461a12.158,12.158,0,0,0-6.264,22.6l.638.387-.706.228a20.477,20.477,0,0,0-14.19,19.5,1.048,1.048,0,0,0,2.1,0,18.411,18.411,0,0,1,18.4-18.4,12.154,12.154,0,0,0,3.234-23.871,12.972,12.972,0,0,0-3.212-.433Zm-.023,22.231a10.068,10.068,0,1,1,10.068-10.068,10.071,10.071,0,0,1-10.068,10.068Zm0-19.452a9.384,9.384,0,1,0,9.384,9.384A9.4,9.4,0,0,0,163.183,107.765Z"
        transform="translate(-142 -104.297)" />
</svg>