<svg xmlns="http://www.w3.org/2000/svg" width="22" height="28.388" viewBox="0 0 22 28.388">
    <path class="cls-1"
        d="M151.17,11.767a11.06,11.06,0,0,0-11,11.12,11.262,11.262,0,0,0,.6,3.64v.017l.016.033a11.646,11.646,0,0,0,.669,1.54l.005.011.005.011c.1.194.214.388.329.576l.011.017.005.011L149.1,38.95a2.374,2.374,0,0,0,4.133,0l7.317-10.245.033-.05.236-.416a.225.225,0,0,0,.027-.05l.005-.017.005-.011a11.718,11.718,0,0,0,.7-1.59l.016-.033v-.011a11.262,11.262,0,0,0,.6-3.64A11.064,11.064,0,0,0,151.17,11.767Zm0,16.063a5.281,5.281,0,1,1,5.223-5.28A5.251,5.251,0,0,1,151.17,27.83Z"
        transform="translate(-140.17 -11.767)" />
</svg>
