<svg xmlns="http://www.w3.org/2000/svg" width="30" height="28" viewBox="0 0 30 28">
    <path
        d="M126.091,122.352H111.844l5.594-5.01a1.227,1.227,0,0,0,0-1.778,1.379,1.379,0,0,0-1.865,0l-7.967,7.273a1.657,1.657,0,0,0-.328.975,1.955,1.955,0,0,0,.5.964l7.967,7.112a2.945,2.945,0,0,0,.847.324,1.49,1.49,0,0,0,1.018-.485,1.227,1.227,0,0,0,0-1.778l-5.423-4.849H126.43a7.777,7.777,0,1,1,0,15.517l-12.372,0a1.3,1.3,0,1,0,0,2.586H126.43c6.037-.1,10.869-4.707,10.848-10.344-.121-5.73-5.05-10.356-11.187-10.5Z"
        transform="translate(-107.278 -115.2)" fill="#4e80ff" />
</svg>
