<svg xmlns="http://www.w3.org/2000/svg" width="26.182" height="30" viewBox="0 0 26.182 30">
    <path
        d="M193.82,75.578h-1.636V74.051a8.182,8.182,0,1,0-16.364,0v1.527h-1.636a3.282,3.282,0,0,0-3.273,3.273V92.6a3.282,3.282,0,0,0,3.273,3.273H193.82a3.282,3.282,0,0,0,3.273-3.273V78.851a3.282,3.282,0,0,0-3.273-3.273ZM184,89.433a3.273,3.273,0,1,1,3.273-3.273A3.282,3.282,0,0,1,184,89.433Zm5.073-13.855H178.929V74.051a5.073,5.073,0,0,1,10.145,0Z"
        transform="translate(-170.911 -65.869)" />
</svg>