<svg xmlns="http://www.w3.org/2000/svg" width="34" height="28" viewBox="0 0 34 28">
    <g transform="translate(-99.011 -133.566)">
        <path
            d="M104.752,157.045a1.4,1.4,0,0,1-1.463-1.428V151.38h-2.157a1.99,1.99,0,0,1-2.121-1.82V135.387a1.99,1.99,0,0,1,2.121-1.82h22.9a1.99,1.99,0,0,1,2.121,1.82v14.173a1.99,1.99,0,0,1-2.121,1.82H112.887a1.884,1.884,0,0,0-.871.3l-6.075,4.922a1.873,1.873,0,0,1-1.189.446Zm-3.427-7.651h2.157a1.99,1.99,0,0,1,2.121,1.82v2.927l4.825-3.909a4.325,4.325,0,0,1,2.459-.839h10.954V135.552H101.324v13.842Z"
            fill="#4e80ff" />
        <path
            d="M481.308,364.761a1.765,1.765,0,0,1-1.185-.506l-4.732-4.363a1.773,1.773,0,0,0-.889-.347h-4.923a1.157,1.157,0,1,1,0-2.314H474.5a4,4,0,0,1,2.457.96l3.5,3.227v-2.13a2.123,2.123,0,0,1,2.121-2.121H484.6V343.9h-4.889a1.157,1.157,0,1,1,0-2.314H484.8a2.123,2.123,0,0,1,2.121,2.121v13.649a2.123,2.123,0,0,1-2.121,2.121h-2.022v3.614a1.605,1.605,0,0,1-.9,1.549,1.394,1.394,0,0,1-.565.119Z"
            transform="translate(-353.906 -203.195)" fill="#4e80ff" />
    </g>
</svg>
