<svg xmlns="http://www.w3.org/2000/svg" width="43" height="43" viewBox="0 0 43 43">
    <g transform="translate(-64.383 -64.383)">
        <path
            d="M69.161,194.9a2.387,2.387,0,0,0,2.375,2.4h28.7a2.392,2.392,0,0,0,2.375-2.4V171.035a2.387,2.387,0,0,0-2.375-2.4h-28.7a2.392,2.392,0,0,0-2.375,2.4Zm-4.778-23.861a7.169,7.169,0,0,1,7.152-7.181h28.7a7.165,7.165,0,0,1,7.152,7.181V194.9a7.169,7.169,0,0,1-7.152,7.181h-28.7a7.165,7.165,0,0,1-7.152-7.181Z"
            transform="translate(0 -94.693)" />
        <path
            d="M263.324,66.75a2.389,2.389,0,0,1,4.778,0v9.6a2.389,2.389,0,0,1-4.778,0v-9.6Zm19.111,0a2.389,2.389,0,0,1,4.778,0v9.6a2.389,2.389,0,0,1-4.778,0v-9.6Z"
            transform="translate(-189.385)" />
        <path
            d="M263.324,463.471a1.188,1.188,0,0,1,1.206-1.206H266.9a1.188,1.188,0,0,1,1.206,1.206v2.367a1.188,1.188,0,0,1-1.206,1.206H264.53a1.188,1.188,0,0,1-1.206-1.206v-2.367Zm9.556,0a1.188,1.188,0,0,1,1.206-1.206h2.367a1.188,1.188,0,0,1,1.206,1.206v2.367a1.188,1.188,0,0,1-1.206,1.206h-2.367a1.188,1.188,0,0,1-1.206-1.206v-2.367Zm9.556,0a1.188,1.188,0,0,1,1.206-1.206h2.366a1.188,1.188,0,0,1,1.206,1.206v2.367a1.188,1.188,0,0,1-1.206,1.206h-2.366a1.188,1.188,0,0,1-1.206-1.206v-2.367Zm-19.111,9.556a1.188,1.188,0,0,1,1.206-1.206H266.9a1.188,1.188,0,0,1,1.206,1.206v2.367A1.188,1.188,0,0,1,266.9,476.6H264.53a1.188,1.188,0,0,1-1.206-1.206v-2.367Zm9.556,0a1.188,1.188,0,0,1,1.206-1.206h2.367a1.188,1.188,0,0,1,1.206,1.206v2.367a1.188,1.188,0,0,1-1.206,1.206h-2.367a1.188,1.188,0,0,1-1.206-1.206v-2.367Zm9.556,0a1.188,1.188,0,0,1,1.206-1.206h2.366a1.188,1.188,0,0,1,1.206,1.206v2.367a1.188,1.188,0,0,1-1.206,1.206h-2.366a1.188,1.188,0,0,1-1.206-1.206v-2.367Z"
            transform="translate(-189.385 -378.771)" />
    </g>
</svg>