<svg xmlns="http://www.w3.org/2000/svg" width="32" height="32" viewBox="0 0 32 32">
    <path
        d="M117.78,69l-4.718-5.081a3.262,3.262,0,0,0-4.338-.25L89.985,78.494a2.863,2.863,0,0,0-.966,1.34l-2.451,7.725a1.461,1.461,0,0,0,.308,1.478,1.713,1.713,0,0,0,1.278.524,2.168,2.168,0,0,0,.259-.017L97.06,88.5a3.241,3.241,0,0,0,1.583-.677L117.382,73a2.7,2.7,0,0,0,.4-3.995ZM91,81.246l4.849,5.223-6.763.819Zm24.863-9.888L98.007,85.48l-5.616-6.049,17.856-14.122a.87.87,0,0,1,.541-.191.675.675,0,0,1,.5.2L116.01,70.4A.654.654,0,0,1,115.863,71.358Z"
        transform="translate(-86.489 -62.965)" fill="#4e80ff" />
    <path d="M165.578,899.882H139.157a1.3,1.3,0,0,1,0-2.582h26.421a1.3,1.3,0,0,1,0,2.582Z"
        transform="translate(-135.862 -867.882)" fill="#4e80ff" />
</svg>
