<svg xmlns="http://www.w3.org/2000/svg" width="41.437" height="41.436" viewBox="0 0 41.437 41.436">
    <g transform="translate(-14.713 -14.421)">
        <g transform="translate(14.718 14.422)">
            <path
                d="M51.695,94.032H49.411a2.427,2.427,0,0,1,.338,1.249v2.53a2.533,2.533,0,0,1-2.493,2.514H26.346a2.55,2.55,0,0,1-2.525-2.514v-2.53a2.306,2.306,0,0,1,.354-1.249H21.891a5.122,5.122,0,0,0-5.2,5.029v25.19a5.123,5.123,0,0,0,5.2,5H39.407a11.107,11.107,0,0,1,2.122-14.788,11.941,11.941,0,0,1,15.378.077V99.061A5.122,5.122,0,0,0,51.695,94.032ZM36.222,119.3h-12.4v-3.9h12.4Zm5.887-8.449H23.821v-3.92H42.109Z"
                transform="translate(-16.696 -90.336)" />
            <path
                d="M323.7,9.833h10.534a2.589,2.589,0,0,0,2.646-2.511V4.812a2.455,2.455,0,0,0-.776-1.781,2.7,2.7,0,0,0-1.87-.73H323.7a2.7,2.7,0,0,0-1.87.73,2.455,2.455,0,0,0-.776,1.781V7.323a2.589,2.589,0,0,0,2.646,2.51Zm17.312,16.311a9.01,9.01,0,0,0-9.211,8.79,9.221,9.221,0,0,0,18.422.021,8.581,8.581,0,0,0-2.687-6.234,9.421,9.421,0,0,0-6.524-2.577Zm5.259,11.305h-7.888v-7h2.629v4.21h5.259Z"
                transform="translate(-308.791 -2.302)" />
        </g>
    </g>
</svg>