<svg xmlns="http://www.w3.org/2000/svg" width="22.401" height="26.809" viewBox="0 0 22.401 26.809">
  <path id="位置" d="M101.806,0A11.168,11.168,0,0,0,90.6,11.127a11.034,11.034,0,0,0,2.812,7.357,1.215,1.215,0,0,0,.183.257l7.279,7.572a1.5,1.5,0,0,0,.115.141,1.151,1.151,0,0,0,.372.246,1.12,1.12,0,0,0,1.267-.209,1.089,1.089,0,0,0,.22-.319l7.142-7.43a.978.978,0,0,0,.168-.22A11.018,11.018,0,0,0,113,11.133,11.154,11.154,0,0,0,101.806,0ZM101.8,15.651a5.011,5.011,0,1,1,5.048-5.011A5.033,5.033,0,0,1,101.8,15.651Z" transform="translate(-90.6)" fill="#5d6581"/>
</svg>
