<svg xmlns="http://www.w3.org/2000/svg" width="40" height="40" viewBox="0 0 40 40">
  <g id="地图" transform="translate(-616.333 -1280.333)">
    <circle id="椭圆_346" data-name="椭圆 346" cx="20" cy="20" r="20" transform="translate(616.333 1280.333)" fill="#487cff"/>
    <g id="组_1646" data-name="组 1646" transform="translate(622.265 1286.585)">
      <path id="路径_3806" data-name="路径 3806" d="M34.251,167.612a1.36,1.36,0,0,1-.176-.528l-3.349-6.511-.176-.176-.176-.176c-.353-.528-.705-1.232-1.586-1.232H25.261a.645.645,0,0,0-.705.7.758.758,0,0,0,.705.7h3.525a2.178,2.178,0,0,1,.353.528l.176.176,3.349,5.983a.616.616,0,0,1-.353.176H8.339a.173.173,0,0,1-.176-.176l3.525-5.983a.614.614,0,0,0,.176-.352c0-.176.176-.176,0-.176h3.173a.645.645,0,0,0,.705-.7.758.758,0,0,0-.705-.7H11.864a1.458,1.458,0,0,0-1.41.88l-.176.176a.614.614,0,0,0-.176.352l-3.7,6.335v.352a1.811,1.811,0,0,0,1.939,1.76H32.312a1.548,1.548,0,0,0,1.939-1.408ZM20.325,154.239a3.519,3.519,0,1,0-3.525-3.519A3.533,3.533,0,0,0,20.325,154.239Zm0-5.455a1.955,1.955,0,0,1,1.939,1.936,2.235,2.235,0,0,1-1.939,1.936,1.936,1.936,0,1,1,0-3.871Z" transform="translate(-6.4 -143.813)" fill="#fff"/>
      <path id="路径_3807" data-name="路径 3807" d="M237.868,43.962c.7.891,1.222,1.248,1.921,1.248s1.222-.357,1.921-1.248c1.921-2.139,4.365-5.17,5.239-8.557a8.32,8.32,0,0,0-1.222-6.953,7.658,7.658,0,0,0-5.937-2.852,8.106,8.106,0,0,0-6.286,2.852,7.417,7.417,0,0,0-.873,6.953A25.157,25.157,0,0,0,237.868,43.962Zm-3.143-14.618c.873-1.426,2.619-2.139,4.889-2.139a5.752,5.752,0,0,1,4.54,2.318,6.448,6.448,0,0,1,1.222,5.526,17.837,17.837,0,0,1-5.064,7.844l-.7.713a.626.626,0,0,1-.175-.357c-.175-.178-.175-.357-.349-.357l-.349-.357c-1.222-1.426-3.842-4.635-4.715-7.666A6.747,6.747,0,0,1,234.725,29.344Z" transform="translate(-225.866 -25.6)" fill="#fff"/>
    </g>
  </g>
</svg>
