<svg xmlns="http://www.w3.org/2000/svg" width="40.331" height="38.15" viewBox="0 0 40.331 38.15">
    <g transform="translate(-15.19 -16.194)">
        <path
            d="M62.208,35.264H46.631V31.542c0-.651.183-.93.916-.93h5.5V27.821a4.335,4.335,0,0,1-2.84-4.28,5.315,5.315,0,1,1,10.629,0c0,2.14-1.375,3.442-3.3,4.28v2.791h5.5c.733,0,.916.279.916.93v3.722a9.51,9.51,0,0,1-1.741,0ZM50.3,27.635v2.047H48.463c-2.474-.186-3.757-.093-3.665.93v5.582H26.473a2.507,2.507,0,0,1-2.749-2.233V2.515A2.483,2.483,0,0,1,26.2,0H53.32a2.566,2.566,0,0,1,2.657,2.419V16.284c-2.016-.651-11.27,2.7-5.681,11.351ZM28.305,25.96H42.966a.931.931,0,0,0,0-1.861H28.305a.93.93,0,1,0,0,1.861Zm0-9.3H47.547a.931.931,0,0,0,0-1.861H28.305a.931.931,0,1,0,0,1.861ZM51.212,5.492H28.305a.872.872,0,0,0-.916.93.872.872,0,0,0,.916.93H51.212a.872.872,0,0,0,.916-.93.926.926,0,0,0-.916-.93ZM44.8,36.287Zm2.749,0H63.124a.93.93,0,1,1,0,1.861H47.547a.931.931,0,1,1,0-1.861Z"
            transform="translate(-8.534 16.196)" />
    </g>
</svg>