<svg xmlns="http://www.w3.org/2000/svg" width="34" height="34" viewBox="0 0 34 34">
  <g id="统计" transform="translate(-56.295 -94.72)">
    <path id="路径_3809" data-name="路径 3809" d="M73.245,128.72a16.692,16.692,0,0,0,8.224-2.112,1.237,1.237,0,0,0,.7-1.107,1.435,1.435,0,0,0-.6-1.207,1.484,1.484,0,0,0-1.3,0,14.044,14.044,0,0,1-7.02,1.811,14.418,14.418,0,0,1-1.3-28.769V111.72a1.33,1.33,0,0,0,1.3,1.308H88.991a1.33,1.33,0,0,0,1.3-1.308,17,17,0,1,0-17.05,17Zm14.342-18.308H74.549V97.335A14.468,14.468,0,0,1,87.587,110.412Zm0,0" transform="translate(0 0)" fill="#5d6478"/>
    <path id="路径_3810" data-name="路径 3810" d="M783.83,670.587a8.485,8.485,0,0,1-1.245,2.076,1.339,1.339,0,1,0,2.179,1.557,19.535,19.535,0,0,0,1.453-2.491,1.323,1.323,0,1,0-2.387-1.142Zm0,0" transform="translate(-697.79 -552.624)" fill="#5d6478"/>
  </g>
</svg>
