<svg xmlns="http://www.w3.org/2000/svg" width="40" height="40" viewBox="0 0 40 40">
  <g id="定位" transform="translate(-616 -1212)">
    <circle id="椭圆_345" data-name="椭圆 345" cx="20" cy="20" r="20" transform="translate(616 1212)" fill="#487cff"/>
    <g id="组_1645" data-name="组 1645" transform="translate(623 1219)">
      <path id="路径_3804" data-name="路径 3804" d="M412.111,415.3a2.9,2.9,0,1,0,2.9-2.9,2.9,2.9,0,0,0-2.9,2.9Z" transform="translate(-401.98 -402.274)" fill="#fff"/>
      <path id="路径_3805" data-name="路径 3805" d="M86.148,75.929H84.217a10.135,10.135,0,0,0-2.91-6.187,10.034,10.034,0,0,0-6.153-2.926V64.886a.988.988,0,1,0-1.977,0v1.931a10.034,10.034,0,0,0-6.153,2.925,10.136,10.136,0,0,0-2.91,6.187H62.124a.994.994,0,0,0,0,1.987h1.992a10.136,10.136,0,0,0,2.91,6.187,10.034,10.034,0,0,0,6.153,2.926V88.9a.988.988,0,1,0,1.977,0v-1.87A10.034,10.034,0,0,0,81.307,84.1a10.136,10.136,0,0,0,2.91-6.187h1.931a.994.994,0,0,0,0-1.987Zm-5.674,7.336a8.863,8.863,0,0,1-5.319,2.572V82.929a.988.988,0,1,0-1.976,0v2.907a8.944,8.944,0,0,1-7.877-7.92h2.76a.994.994,0,0,0,0-1.987H65.3a8.944,8.944,0,0,1,7.877-7.92v2.846a.988.988,0,1,0,1.977,0V68.009a8.944,8.944,0,0,1,7.877,7.92h-2.82a.994.994,0,0,0,0,1.987h2.82A8.951,8.951,0,0,1,80.474,83.265Z" transform="translate(-61.136 -63.892)" fill="#fff"/>
    </g>
  </g>
</svg>
