<svg xmlns="http://www.w3.org/2000/svg" width="31.5" height="28" viewBox="0 0 31.5 28">
    <g transform="translate(-0.005 -0.002)">
        <path
            d="M155.648,154.127a1.051,1.051,0,0,1-.3-.044,1.1,1.1,0,0,1-.723-1.361,12.127,12.127,0,0,0,.457-3.311,11.651,11.651,0,0,0-11.457-11.818,11.2,11.2,0,0,0-8.173,3.538,1.039,1.039,0,0,1-1.506.015,1.121,1.121,0,0,1-.013-1.551,13.526,13.526,0,0,1,4.349-3.067,13.255,13.255,0,0,1,10.634-.026,13.526,13.526,0,0,1,4.317,3,14,14,0,0,1,2.909,4.447,14.5,14.5,0,0,1,.525,9.382A1.07,1.07,0,0,1,155.648,154.127ZM143.582,163.4a13.144,13.144,0,0,1-5.287-1.1,13.525,13.525,0,0,1-4.317-3,14,14,0,0,1-2.909-4.446,14.491,14.491,0,0,1-.335-9.988,1.04,1.04,0,0,1,.527-.624,1.071,1.071,0,0,1,.823-.059,1.106,1.106,0,0,1,.67,1.393,12.107,12.107,0,0,0-.614,3.823A11.651,11.651,0,0,0,143.6,161.213a11.2,11.2,0,0,0,8.173-3.538,1.039,1.039,0,0,1,1.506-.015,1.122,1.122,0,0,1,.013,1.551,13.527,13.527,0,0,1-4.349,3.067,13.184,13.184,0,0,1-5.377,1.12Z"
            transform="translate(-127.882 -135.399)" fill="#4e80ff" />
        <path
            d="M817.033,587.734a.847.847,0,0,1-.479-1.54l3.3-2.268a.847.847,0,0,1,.959,1.391l-3.3,2.268a.869.869,0,0,1-.479.149Z"
            transform="translate(-789.62 -567.158)" fill="#4e80ff" />
        <path
            d="M749.718,557.992a.847.847,0,0,1-.7-.364l-2.268-3.3a.847.847,0,1,1,1.391-.959l2.268,3.3a.847.847,0,0,1-.7,1.323Z"
            transform="translate(-722.387 -537.47)" fill="#4e80ff" />
        <path
            d="M68.133,333.734a.847.847,0,0,1-.479-1.54l3.3-2.268a.847.847,0,0,1,.959,1.391l-3.3,2.268A.848.848,0,0,1,68.133,333.734Z"
            transform="translate(-67.289 -322.572)" fill="#4e80ff" />
        <path
            d="M170.194,335.258a.847.847,0,0,1-.7-.364l-2.268-3.3a.847.847,0,0,1,1.391-.962l2.268,3.3a.847.847,0,0,1-.217,1.176.869.869,0,0,1-.478.151Z"
            transform="translate(-163.715 -323.024)" fill="#4e80ff" />
    </g>
</svg>
