<svg  xmlns="http://www.w3.org/2000/svg" width="21.047" height="18.5" viewBox="0 0 21.047 18.5">
  <path  d="M6.018,16.982a.728.728,0,0,1-.525-.21L-.36,10.9a.735.735,0,0,1,0-1.049L5.493,3.995A.742.742,0,1,1,6.542,5.044L1.234,10.373,6.563,15.7a.735.735,0,0,1,0,1.049.8.8,0,0,1-.546.231Z" transform="translate(0.581 -3.706)" />
  <path d="M255.984,13.15a.671.671,0,0,1-.965,0l-6-6a.671.671,0,0,1,0-.965l6-5.98a.671.671,0,0,1,.965,0" transform="translate(-244.308 0)" />
  <path  d="M644.536,216.883s8.287-.65,6.84,8.875c0,0,3.9-4.511,2.056-9.316-.923-1.741-2.035-5.329-8.9-5.371Z" transform="translate(-632.881 -207.258)" />
</svg>
