<svg xmlns="http://www.w3.org/2000/svg" width="31.998" height="32" viewBox="0 0 31.998 32">
    <g transform="translate(-1657.5 -342.995)">
        <path
            d="M145.529,98.54h22.985a1.276,1.276,0,0,1,1.271,1.287,1.291,1.291,0,0,1-1.271,1.287H145.529a1.276,1.276,0,0,1-1.271-1.287,1.291,1.291,0,0,1,1.271-1.287Zm0-7.1h22.985a1.276,1.276,0,0,1,1.271,1.287,1.291,1.291,0,0,1-1.271,1.287H145.529a1.276,1.276,0,0,1-1.271-1.287,1.291,1.291,0,0,1,1.271-1.287Zm-5.4,2.232a1.15,1.15,0,0,1-2.191-.309c-1.033-12.043,3.358-18.065,12.5-19.687V70.216a1.145,1.145,0,0,1,1.83-.873l10.244,7.683a1.067,1.067,0,0,1,.188,1.537,1.617,1.617,0,0,1-.188.188L152.27,86.435a1.162,1.162,0,0,1-.836.226,1.143,1.143,0,0,1-.753-.412,1.093,1.093,0,0,1-.237-.664v-3.21c-4.437.519-7.407,4.277-10.313,11.3ZM151.554,80.3a1.159,1.159,0,0,1,1.184,1.142v2.243l7.575-5.711-7.575-5.711V74.5a1.157,1.157,0,0,1-1.033,1.142C144.087,76.7,140,80.587,139.524,88.977c3.1-5.711,6.675-8.681,12.028-8.681Z"
            transform="translate(1519.713 273.88)" fill="#4e80ff" />
    </g>
</svg>
