<svg xmlns="http://www.w3.org/2000/svg" width="39.667" height="39.672" viewBox="0 0 39.667 39.672">
    <g transform="translate(-302 -424.04)">
        <g transform="translate(206 328.14)">
            <path
                d="M553.154,544a9.154,9.154,0,1,0,9.154,9.154A9.154,9.154,0,0,0,553.154,544Zm5.654,10.231a1.521,1.521,0,0,1-1.078.448h-4.577a1.53,1.53,0,0,1-1.526-1.526v-6.1a1.526,1.526,0,0,1,3.051,0v4.577h3.051a1.524,1.524,0,0,1,1.078,2.6Z"
                transform="translate(-426.641 -426.736)" />
            <path
                d="M293.66,106.16m-10.26,0A10.26,10.26,0,1,0,293.66,95.9a10.26,10.26,0,0,0-10.26,10.26Z"
                transform="translate(-178.465)" />
            <path
                d="M115.266,543.347a12.088,12.088,0,0,0,1.716,2.875H97.464A1.462,1.462,0,0,1,96,544.815v-.172a19.061,19.061,0,0,1,8.434-15.433,2.948,2.948,0,0,1,3.314.019,13.173,13.173,0,0,0,7.447,2.3,12.673,12.673,0,0,0,1.416-.076,12.233,12.233,0,0,0-1.344,11.89Z"
                transform="translate(0 -412.176)" />
        </g>
    </g>
</svg>