<svg xmlns="http://www.w3.org/2000/svg" width="27" height="30" viewBox="0 0 27 30">
    <path
        d="M122.967,52.841c0-.018.01-.033.01-.052V35.154A3.187,3.187,0,0,0,119.765,32H99.211A3.187,3.187,0,0,0,96,35.154V58.846A3.187,3.187,0,0,0,99.211,62h15.565a1.056,1.056,0,0,0,.68-.245l4.989-4.176a.981.981,0,0,0,.365-.955,1.012,1.012,0,0,0-.692-.769,1.067,1.067,0,0,0-1.032.214l-3.371,2.822V55.155A1.147,1.147,0,0,1,116.851,54h5.111A1.019,1.019,0,0,0,123,53,1.173,1.173,0,0,0,122.967,52.841Zm-9.328,2.313V60H99.211a1.147,1.147,0,0,1-1.136-1.154V35.154A1.147,1.147,0,0,1,99.211,34h20.554a1.147,1.147,0,0,1,1.137,1.154V52h-4.051A3.187,3.187,0,0,0,113.639,55.154Z"
        transform="translate(-96 -32)" fill="#4e80ff" />
    <path d="M449.69,705.69m-1.69,0a1.69,1.69,0,1,0,1.69-1.69A1.69,1.69,0,0,0,448,705.69Z"
        transform="translate(-436.714 -683.295)" fill="#4e80ff" opacity="0.65" />
    <path
        d="M315.255,192a6.391,6.391,0,0,0-6.391,6.391,1.126,1.126,0,1,0,2.253,0,4.14,4.14,0,0,1,8.277,0,4.385,4.385,0,0,1-4.139,4.417,1.126,1.126,0,0,0-1.126,1.126v2.211a1.126,1.126,0,0,0,2.253,0v-1.184a6.7,6.7,0,0,0,5.265-6.57A6.391,6.391,0,0,0,315.255,192Z"
        transform="translate(-302.419 -187.521)" fill="#4e80ff" />
</svg>
