<svg xmlns="http://www.w3.org/2000/svg" width="40.001" height="40" viewBox="0 0 40.001 40">
  <path id="移入精选" d="M97.036,135.447a3.489,3.489,0,0,1-4.908-1.229,3.8,3.8,0,0,1-.42-2.761l2.179-9.531a.642.642,0,0,0-.189-.618l-7.133-6.374a3.779,3.779,0,0,1-.386-5.179,3.52,3.52,0,0,1,2.425-1.286l9.361-.782a.565.565,0,0,0,.47-.365l3.607-9.046a3.517,3.517,0,0,1,4.665-1.993,3.626,3.626,0,0,1,1.914,1.993l3.607,9.046a.564.564,0,0,0,.47.366l9.362.783a3.649,3.649,0,0,1,3.261,3.967,3.733,3.733,0,0,1-1.223,2.5l-7.133,6.374a.641.641,0,0,0-.188.618l2.179,9.531a3.694,3.694,0,0,1-2.632,4.434,3.454,3.454,0,0,1-2.7-.444l-8.015-5.108a.518.518,0,0,0-.563,0l-8.015,5.108Zm10.162-7.721,8.015,5.108a.519.519,0,0,0,.405.068.614.614,0,0,0,.419-.742l-2.179-9.531A3.767,3.767,0,0,1,115,118.988l7.133-6.374a.629.629,0,0,0,.2-.421.6.6,0,0,0-.515-.658l-9.362-.783a3.572,3.572,0,0,1-3-2.268l-3.607-9.046a.585.585,0,0,0-.307-.324.543.543,0,0,0-.719.324l-3.607,9.046a3.572,3.572,0,0,1-3,2.268l-9.361.783a.543.543,0,0,0-.374.2.648.648,0,0,0,.062.878l7.133,6.374a3.766,3.766,0,0,1,1.138,3.641l-2.179,9.53a.655.655,0,0,0,.071.475.532.532,0,0,0,.753.2l8.015-5.107a3.455,3.455,0,0,1,3.73,0Z" transform="translate(-85.332 -95.994)" fill="#fff"/>
</svg>
