<svg xmlns="http://www.w3.org/2000/svg" width="39.913" height="36.551" viewBox="0 0 39.913 36.551"><g transform="translate(-13.557 -14.309)"><g transform="translate(13.557 14.31)"><path d="M154.49,128.061h.006a6.092,6.092,0,0,1,6.092,6.092H124a6.092,6.092,0,0,1,6.092-6.092h.006v-1.012a3.05,3.05,0,0,1,6.1,0v1.012h12.2v-1.012a3.05,3.05,0,0,1,6.1,0v1.012Zm-7.222,10.153a13.287,13.287,0,0,0-1.044,22.336H132.131A8.13,8.13,0,0,1,124,152.419V138.214Z" transform="translate(-124 -124)"/><path d="M553.978,475.392a9.968,9.968,0,1,1,9.978-9.968,9.968,9.968,0,0,1-9.978,9.968ZM552.553,464h-2.14a1.424,1.424,0,0,0,0,2.848h2.14v2.134a1.426,1.426,0,1,0,2.851,0v-2.134h2.14a1.424,1.424,0,1,0,0-2.848H555.4v-2.135a1.425,1.425,0,1,0-2.851,0V464Z" transform="translate(-524.043 -439.707)"/></g></g></svg>