<svg xmlns="http://www.w3.org/2000/svg" width="30" height="30" viewBox="0 0 30 30">
    <g transform="translate(-102.4 -128)">
        <path
            d="M117.4,131a12,12,0,1,1-12,12,12,12,0,0,1,12-12m0-3a15,15,0,1,0,15,15A15,15,0,0,0,117.4,128Z" />
        <path
            d="M487.975,298.666a1.575,1.575,0,0,0-1.575,1.575v7.875a1.575,1.575,0,1,0,3.15,0v-7.875A1.575,1.575,0,0,0,487.975,298.666Z"
            transform="translate(-371.325 -163.328)" />
        <path d="M496.246,512h-8.2a1.576,1.576,0,1,0,0,3.15h8.2a1.576,1.576,0,1,0,0-3.15Z"
            transform="translate(-371.325 -368.325)" />
    </g>
</svg>