<svg xmlns="http://www.w3.org/2000/svg" width="40" height="39.905" viewBox="0 0 40 39.905">
    <path
        d="M92.114,64a3.337,3.337,0,0,1,3.337,3.337v5h3.543a5,5,0,0,1,5.006,5V95.663a5,5,0,0,1-5,5h-.649a3.337,3.337,0,0,1-6.671,0H76.411a3.337,3.337,0,0,1-6.671,0H69a5,5,0,0,1-5-5V77.337a5,5,0,0,1,5-5H72.58v-5A3.338,3.338,0,0,1,75.914,64ZM76.143,80.666q-2.143,0-2.143,2.5v6.663q0,2.5,2.143,2.5t2.143-2.5V83.169Q78.286,80.666,76.143,80.666Zm15.714,0q-2.143,0-2.143,2.5v6.663q0,2.5,2.143,2.5T94,89.831V83.169Q94,80.666,91.857,80.666ZM90.449,69H77.583v3.334H90.449Z"
        transform="translate(-64 -64)" fill="#595959" />
</svg>