<svg xmlns="http://www.w3.org/2000/svg" width="26.899" height="24.208" viewBox="0 0 26.899 24.208">
    <path
        d="M45.737,76.419V75.073a1.345,1.345,0,0,0-1.345-1.345H25.563a1.345,1.345,0,0,0-1.345,1.345v9.414a8.07,8.07,0,0,0,8.07,8.07h5.379a8.069,8.069,0,0,0,7.612-5.379h.458a5.379,5.379,0,0,0,0-10.759Zm0,8.069v-5.38a2.69,2.69,0,0,1,0,5.379Zm0,12.1a1.345,1.345,0,0,1-1.345,1.345H25.563a1.345,1.345,0,1,1,0-2.69H44.392a1.347,1.347,0,0,1,1.345,1.345Zm0,0"
        transform="translate(-24.218 -73.728)" />
</svg>
