<svg xmlns="http://www.w3.org/2000/svg" width="40" height="31.902" viewBox="0 0 40 31.902">
    <path
        d="M15.7,102.747a28.928,28.928,0,0,1,8.553,0c1.994.4,3.987.718,5.861,1.236a4.187,4.187,0,0,1,2.951,2.771q1.216,3.429,2.552,6.8c.159.379.638.937.917.9a2.951,2.951,0,0,1,3.389,2.352,2.572,2.572,0,0,1,0,1.236l-2.273.618a20.1,20.1,0,0,1,.279,2.392v11.045a3.15,3.15,0,0,1-.678,1.834,18.66,18.66,0,0,1-6.38.12c-1.475-.937-.558-2.512-1.037-3.788H10.457c-.379,1.356-.6,3.628-1.037,3.788a18.939,18.939,0,0,1-6.539,0,3.569,3.569,0,0,1-.718-2.113c-.12-1.595-.12-3.11-.12-4.665,0-2.891,0-5.781.12-8.692l-2.113-.558a2.293,2.293,0,0,1,0-.977c.6-1.595,1.4-2.831,3.449-2.651.239,0,.7-.478.837-.837A53.667,53.667,0,0,0,6.33,108.11a6.778,6.778,0,0,1,5.981-4.924c1.1-.2,2.233-.339,3.329-.518Zm-8.812,12.32a62.978,62.978,0,0,0,26.076,0c-.738-2.213-1.475-4.187-1.994-6.18a3.309,3.309,0,0,0-3.309-2.651c-4.127-.179-8.273-.319-12.4-.359a17.643,17.643,0,0,0-3.987.618,2.273,2.273,0,0,0-1.455,1C8.7,109.9,7.865,112.4,6.889,115.068Zm1.695,9.41a9.728,9.728,0,0,0,2.133-.12,1.994,1.994,0,0,0,1.3-.977c.1-.3-.359-1.037-.758-1.216a46.589,46.589,0,0,0-4.984-1.994c-.837-.279-1.794-.219-1.994.957-.4,1.734,0,2.691,1.3,2.97a29.691,29.691,0,0,0,3.11.339Zm22.986,0a28.45,28.45,0,0,0,3.13-.4c1.5-.339,1.176-1.555,1.136-2.612s-.6-1.555-1.415-1.316a43.223,43.223,0,0,0-5.981,2.273c-.877.419-.558,1.575.439,1.794a22.447,22.447,0,0,0,2.691.239Z"
        transform="translate(0.002 -102.43)" />
</svg>
