<svg xmlns="http://www.w3.org/2000/svg" width="30.001" height="30.001" viewBox="0 0 30.001 30.001">
    <path
        d="M-170-1533a14.9,14.9,0,0,1-10.607-4.393A14.9,14.9,0,0,1-185-1548a14.9,14.9,0,0,1,4.393-10.607A14.9,14.9,0,0,1-170-1563a14.9,14.9,0,0,1,10.607,4.393A14.9,14.9,0,0,1-155-1548a14.9,14.9,0,0,1-4.393,10.607A14.9,14.9,0,0,1-170-1533Zm0-17a2,2,0,0,0-2,2v7a2,2,0,0,0,2,2,2,2,0,0,0,2-2v-7A2,2,0,0,0-170-1550Zm0-7a2,2,0,0,0-2,2v1a2,2,0,0,0,2,2,2,2,0,0,0,2-2v-1A2,2,0,0,0-170-1557Z"
        transform="translate(185 1563)" />
</svg>