<svg xmlns="http://www.w3.org/2000/svg" xmlns:xlink="http://www.w3.org/1999/xlink" width="100"
    height="100" viewBox="0 0 100 100">
    <g transform="translate(-248 -228)">
        <g transform="translate(273 248)">
            <path
                d="M166.515,62.974c-1.492-15.279-16.247-20.2-16.247-20.2A28.665,28.665,0,0,0,137,41.923c-15.75,2.037-19.729,20.032-19.729,20.032-2.156,11.714,6.134,21.729,6.134,21.729,2.156,2.037,18.071,17.825,18.071,17.825h1.989c0-.848,15.75-16.636,15.75-16.636A23.983,23.983,0,0,0,166.515,62.974ZM142.158,84.858a18.5,18.5,0,1,1,18.063-18.5A18.284,18.284,0,0,1,142.158,84.858Z"
                transform="translate(-116.917 -41.51)" />
            <path
                d="M472,231.856v13.8s.884,2.3,2.653,2.3H484.2s4.863-2.388,0-4.863L477.748,243s-1.5.884-1.5-1.592l.088-9.551S474.3,228.849,472,231.856Z"
                transform="translate(-449.744 -218.682)" />
        </g>
    </g>
</svg>