<svg xmlns="http://www.w3.org/2000/svg" width="46" height="46" viewBox="0 0 46 46">
    <path id="通讯录"
        d="M40.21,0H9.558A5.746,5.746,0,0,0,3.814,5.744H1.93A1.942,1.942,0,0,0,0,7.674v5.744a1.942,1.942,0,0,0,1.93,1.93H3.86V18.2H1.93A1.942,1.942,0,0,0,0,20.128v5.744A1.942,1.942,0,0,0,1.93,27.8H3.86v2.849H1.93A1.942,1.942,0,0,0,0,32.581v5.744a1.942,1.942,0,0,0,1.93,1.93H3.86A5.746,5.746,0,0,0,9.6,46H40.256A5.746,5.746,0,0,0,46,40.256V5.79A5.825,5.825,0,0,0,40.21,0Zm-2.3,35.614a1.217,1.217,0,0,1-1.195,1.195,1.186,1.186,0,0,1-1.195-1.195h-.092a12.7,12.7,0,0,0-21.6,0h-.046a1.217,1.217,0,0,1-1.195,1.195A1.186,1.186,0,0,1,11.4,35.614h-.276a15.019,15.019,0,0,1,8.18-7.4,10.822,10.822,0,1,1,16.268-9.375,10.674,10.674,0,0,1-5.514,9.375,15.035,15.035,0,0,1,8.18,7.4ZM16.176,18.8a8.456,8.456,0,1,1,8.456,8.41,8.424,8.424,0,0,1-8.456-8.41Z"
        fill="#c6cad2" />
</svg>
